<?xml version="1.0" encoding="UTF-8" standalone="no"?>
<!-- Created with Inkscape (http://www.inkscape.org/) -->

<svg
   width="24"
   height="24"
   viewBox="0 0 24 24"
   version="1.1"
   id="svg1"
   xml:space="preserve"
   xmlns="http://www.w3.org/2000/svg"
   xmlns:svg="http://www.w3.org/2000/svg"><defs
     id="defs1" /><g
     id="layer2"><path
       id="rect13"
       style="opacity:1;fill:#ffffff;fill-opacity:1;stroke:none;stroke-width:0.0719048;stroke-linecap:square;paint-order:stroke fill markers"
       d="m 22.889466,4.9047544 c -0.753568,0.02513 -5.847669,1.851131 -5.907154,1.882609 -0.401623,0.212627 -1.996256,2.079019 -5.102299,3.2490526 -0.224967,0.05716 -0.516979,0.270312 -0.874678,0.196417 -0.501838,-0.103667 -1.0060005,-0.6737846 -1.1680665,-0.8668486 -0.180409,-0.214912 -0.440343,-0.548587 -0.555715,-0.874027 -0.196095,-0.553158 -0.422231,-0.983733 -1.211393,-1.186207 -0.55716,-0.142947 -0.834227,-0.05736 -1.175116,0.07766 -0.322806,0.174648 -2.783877,0.232753 -2.777258,0.498287 0.0029,0.116979 2.31031,0.813363 2.572487,0.92832 0.126122,0.06861 0.74679,0.373164 1.24546,0.57555 0.159051,0.05855 0.692733,0.144993 0.825737,0.6676886 l 0.396753,1.559336 c 0.102234,0.401779 -0.831643,1.091139 -1.126957,1.164412 -1.975397,0.932516 -4.148951,2.290863 -4.467885,2.75155 -0.318937,0.460683 -2.561255,2.844897 -2.563353,3.177532 -0.0055,0.875325 3.752609,-0.505234 6.77818,-1.741659 1.930309,-0.788836 3.5764895,-1.434972 3.7113205,-1.672099 0.24383,-0.428829 0.04936,-0.371621 0.197591,-0.503117 0.283155,-0.251103 0.486803,0.303176 0.486803,0.303176 0.134036,0.330663 0.342619,0.802257 0.328756,1.003887 -0.03922,0.570454 -1.07239,0.907144 -1.201608,1.208654 -0.04312,0.100615 -0.08396,0.224138 -0.123592,0.346243 l -0.02741,-0.0038 -1.3498685,-0.198378 c -0.09599,-0.01258 -0.183738,0.05364 -0.196809,0.149564 l -0.02884,0.212079 c -0.01307,0.09593 0.05398,0.181489 0.149565,0.196809 l 1.2869615,0.205684 c 0.0054,7.58e-4 0.01113,0.0015 0.01696,0.0023 -0.04178,0.23221 -0.04483,0.412659 0.02245,0.442563 0.150347,0.06682 0.267284,0.06682 0.300694,-2e-6 0.03342,-0.06682 -10e-7,-0.384221 -10e-7,-0.384221 0,0 0.100236,0.267286 0.200464,0.367517 0.100234,0.100233 0.300698,-0.150345 0.283991,-0.25058 -0.002,-0.01225 -0.0049,-0.035 -0.008,-0.06539 l 0.681915,0.08208 c -0.01424,0.0613 -0.02245,0.112924 -0.02252,0.150337 10e-7,0.250583 0.09605,0.421811 0.212993,0.338284 0.116937,-0.08353 0.108594,-0.208813 0.07517,-0.325752 -0.03341,-0.116937 0.07935,-0.162877 0.09606,-0.02923 0.01669,0.133643 0.10669,0.272777 0.214168,0.180236 0.01452,-0.0125 0.02224,-0.112158 0.02754,-0.241054 l 1.458975,0.175805 c 0.09593,0.01301 0.183738,-0.05364 0.196809,-0.149564 l 0.02884,-0.212082 c 0.01307,-0.09593 -0.05366,-0.183456 -0.149564,-0.19668 l -1.325593,-0.152173 c 0.100922,-0.229043 0.121179,-0.650316 0.166923,-0.707496 0.06682,-0.08353 0.935497,-0.918792 1.085845,-0.985612 0.150345,-0.06682 1.21283,0.437209 1.21283,0.437209 -0.08056,0.436913 -0.19671,0.859909 -0.349505,1.275345 -0.646744,1.695773 0.451871,0.299955 0.53222,0.241183 0.07118,0.0879 0.260438,0.801216 0.395185,0.807075 0.130278,0.0057 0.276817,-0.60695 0.325493,-0.729943 0.03398,0.121213 0.129695,0.793028 0.259714,0.803027 0.134478,0.01036 0.260512,-0.425796 0.325102,-0.651376 0.0972,0.121667 0.417224,0.69754 0.541747,0.658816 0.128809,-0.04005 0.08473,-0.491841 0.05207,-0.72864 0.130058,0.06826 0.561225,0.395786 0.657902,0.308269 0.100002,-0.09052 -0.13014,-0.481858 -0.374304,-0.720028 0.02864,-0.01667 0.469634,0.199052 0.533266,0.08523 0.06582,-0.117738 -0.289097,-0.485975 -0.471141,-0.622012 0.146004,-0.02692 0.596158,-0.07617 0.605957,-0.206204 0.01012,-0.134507 -0.400367,-0.188852 -0.612223,-0.244055 0.141338,-0.07609 0.701553,-0.325783 0.691705,-0.455612 -0.01018,-0.134303 -0.434672,-0.160003 -0.617053,-0.176317 0.160297,-0.06714 0.678033,-0.187023 0.666515,-0.339068 -0.01192,-0.157269 -0.538354,-0.225408 -0.819864,-0.21743 -0.25183,0.0071 -0.659104,0.08987 -0.818169,0.15361 0,0 -1.810849,-2.13282 -1.904014,-2.314206 -0.308804,-0.60125 2.51083,-2.119402 3.37917,-3.0251 0.73575,-0.7673936 4.523769,-5.0912296 4.191596,-5.6674026 -0.0089,-0.01541 -0.03981,-0.02177 -0.09005,-0.0201 z M 6.8767745,7.6024014 a 0.21853006,0.21853006 0 0 1 0.218473,0.218602 0.21853006,0.21853006 0 0 1 -0.218474,0.218476 0.21853006,0.21853006 0 0 1 -0.218475,-0.218473 0.21853006,0.21853006 0 0 1 0.218476,-0.218605 z m 6.5764095,8.0344696 c 0.238303,-0.01422 0.539044,0.102211 0.587557,0.314921 0.125577,0.550582 -1.019023,1.102551 -1.10255,1.286309 -0.04156,0.09143 -0.145658,0.34976 -0.247578,0.623969 l -0.60127,-0.08371 c 0.0042,-0.0062 0.0086,-0.01344 0.01357,-0.02233 0.08352,-0.150347 0.08354,-0.334107 0.0167,-0.367517 -0.06682,-0.0334 -0.384228,-0.05006 -0.317401,-0.200464 0.06682,-0.150347 1.135826,-0.467839 1.453363,-0.952202 0.108414,-0.165369 -0.09187,-0.537819 0.100236,-0.584685 0.03058,-0.0074 0.06332,-0.0122 0.09736,-0.01422 z m -1.571083,1.929202 c 0.0063,9.6e-5 0.01303,0.002 0.02037,0.0061 0.08568,0.0476 0.111536,0.147652 0.133513,0.198638 l -0.22239,-0.03107 c 0.0092,-0.0991 0.02875,-0.170622 0.06578,-0.17358 7.83e-4,-8.3e-5 0.0018,-2.52e-4 0.0027,-1.36e-4 z m 1.322591,0.191733 c 0.01634,1.87e-4 0.02584,0.01904 0.02584,0.01904 0,0 0.0083,0.06952 0.08914,0.168359 l -0.17984,-0.02063 -0.0067,-0.001 c 0.0035,-0.04749 0.0079,-0.08296 0.01394,-0.09669 0.0235,-0.05481 0.04326,-0.0693 0.05769,-0.06917 z" /></g></svg>
