<?xml version="1.0" encoding="UTF-8" standalone="no"?>
<!-- Created with Inkscape (http://www.inkscape.org/) -->

<svg
   width="210mm"
   height="297mm"
   viewBox="0 0 210 297"
   version="1.1"
   id="svg1"
   xml:space="preserve"
   xmlns:xlink="http://www.w3.org/1999/xlink"
   xmlns="http://www.w3.org/2000/svg"
   xmlns:svg="http://www.w3.org/2000/svg"><defs
     id="defs1"><clipPath
       clipPathUnits="userSpaceOnUse"
       id="clipPath109"><path
         id="path109"
         style="fill:#ff0000;fill-opacity:1;fill-rule:nonzero;stroke:none;stroke-width:1.05852"
         d="m 419.98649,153.40419 v 16.29339 h 91.2913 v -16.29339 z m 29.28095,1.11641 c 0.53913,0.0242 1.07601,0.0827 1.61258,0.13852 0.3087,0.0281 0.61729,0.0609 0.92415,0.10543 0.19131,0.022 0.38091,0.0566 0.56854,0.1013 0.35418,0.0865 0.56844,0.31167 0.72567,0.62436 0.0533,0.11383 0.0782,0.25973 0.10543,0.37627 0.0131,0.0118 0.0217,0.0275 0.0289,0.0434 0.0352,0.0843 0.15677,0.187 0.0972,0.25638 -0.0172,0.02 -0.036,0.0405 -0.0538,0.0599 0.22745,0.0553 0.45279,0.12174 0.67399,0.19847 0.30478,0.10501 0.59928,0.23363 0.88692,0.37834 0.2038,0.11837 0.41367,0.2166 0.6409,0.2791 0.28514,0.0735 0.57814,0.006 0.86419,-0.0289 0.5819,-0.0813 1.16594,-0.15544 1.74904,-0.22742 0.51094,-0.0645 1.02392,-0.0955 1.53817,-0.11785 0.37278,-0.0148 0.74521,-0.0217 1.11848,-0.0269 0.2606,-0.005 0.52057,-0.0106 0.77942,0.0228 0.23015,0.0336 0.44913,0.10205 0.66157,0.19434 0.22772,0.11624 0.42839,0.27659 0.61402,0.4507 0.12003,0.12682 0.22664,0.26591 0.33907,0.39902 0.0803,0.11504 0.1341,0.22398 0.15919,0.33078 0.21155,0.053 0.42117,0.11096 0.62849,0.17987 0.44796,0.16631 0.82497,0.46656 1.18464,0.77322 0.32642,0.28975 0.62461,0.60933 0.92827,0.92206 0.18392,0.18086 0.35596,0.37357 0.5272,0.56648 0.10802,0.13346 0.22316,0.26168 0.34319,0.38454 0.10922,0.11394 0.2237,0.22236 0.34732,0.32045 0.16383,0.13937 0.32963,0.27437 0.49206,0.41555 0.13954,0.12298 0.28465,0.24058 0.42588,0.36181 0.0236,0.0211 0.0484,0.0409 0.0724,0.062 1.03226,0.90886 0.11118,1.95206 -0.92,1.04198 -0.0188,-0.0172 -0.0379,-0.0345 -0.0579,-0.0516 -0.14299,-0.12311 -0.29087,-0.24095 -0.43209,-0.36593 -0.14863,-0.12963 -0.30274,-0.25418 -0.45277,-0.38248 -0.16607,-0.1348 -0.32208,-0.27909 -0.46931,-0.43416 -0.13482,-0.13861 -0.26705,-0.27988 -0.38866,-0.43003 -0.15724,-0.17729 -0.31415,-0.35524 -0.48379,-0.52099 -0.2742,-0.28238 -0.54278,-0.57143 -0.83524,-0.83524 -0.2226,-0.19201 -0.45395,-0.38883 -0.72359,-0.51065 -0.31146,-0.10575 -0.63176,-0.17417 -0.95102,-0.25223 -0.49097,-0.11889 -0.98052,-0.24394 -1.45961,-0.40521 -0.18919,-0.0556 -0.3789,-0.10932 -0.56853,-0.16333 -0.0308,-0.008 -0.0844,-0.002 -0.11372,-0.0124 -0.002,-10e-4 -0.008,-0.005 -0.0106,-0.006 l -0.002,-0.002 -0.002,-0.002 -0.002,-0.002 -0.002,-0.002 v -0.002 c -5.2e-4,-0.002 -0.002,-0.005 -0.002,-0.008 v -0.002 c 0.002,-0.25817 -0.007,-0.46821 -0.0206,-0.63884 -0.221,0.004 -0.44081,0.01 -0.66158,0.0186 -0.47756,0.0206 -0.95613,0.0496 -1.43065,0.10958 -0.58363,0.072 -1.16662,0.14623 -1.74904,0.22741 -0.47297,0.0579 -0.95181,0.12615 -1.41826,-0.0145 -0.30841,-0.0907 -0.60267,-0.21106 -0.88072,-0.37421 -0.23356,-0.11758 -0.47142,-0.22347 -0.71947,-0.30804 -0.25436,-0.0894 -0.51657,-0.1554 -0.77942,-0.21502 -0.32282,-0.0958 -0.63721,-0.22203 -0.89726,-0.44243 -0.17443,-0.18466 -0.23163,-0.21305 -0.30805,-0.52098 -0.0363,-0.14647 -0.017,-0.29279 0.0351,-0.42796 -0.26733,-0.0374 -0.53531,-0.0644 -0.80424,-0.0889 -0.50584,-0.0526 -1.01131,-0.10666 -1.51956,-0.13026 -0.65375,-0.0252 -1.30818,0.002 -1.96198,0.0165 -0.74109,0.0218 -1.48159,0.0542 -2.22248,0.0807 -0.30465,0.007 -0.60895,0.007 -0.9138,0.006 h -0.004 c -1.37535,-0.003 -1.37535,-1.39125 0,-1.38931 0.29406,3.9e-4 0.58874,5.9e-4 0.8828,-0.006 0.73793,-0.0268 1.47612,-0.057 2.21421,-0.0785 0.68464,-0.0174 1.36835,-0.0434 2.05296,-0.0186 z m 2.69178,1.96613 c 0.006,0.0311 0.0327,0.0654 0.0579,0.0992 -0.0339,-0.0582 -0.0473,-0.079 -0.0579,-0.0992 z m 0.89106,0.11785 c -0.12473,0.093 -0.25522,0.1799 -0.3866,0.26257 0.0822,-0.005 0.16098,-0.0336 0.25635,-0.0889 0.062,-0.05 0.10405,-0.10841 0.13025,-0.17366 z m -0.71119,0.2088 c 0.007,0.004 0.0129,0.007 0.0206,0.0106 -0.007,-0.004 -0.014,-0.006 -0.0206,-0.0106 z" /></clipPath></defs><g
     <g
     id="layer2"><path
       style="fill:none;stroke:#000000;stroke-width:0.762;stroke-linecap:square;stroke-dasharray:none;stroke-opacity:1;paint-order:stroke fill markers"
       d="m 60.895682,152.63984 c 6.009444,0.26708 8.81385,3.20503 12.152428,1.8696 3.338579,-1.33543 8.012592,-6.94424 9.615109,-7.07779 1.602518,-0.13354 8.813848,-0.9348 8.813848,-0.9348 0,0 19.230213,-9.48156 20.031473,-9.48156 0.80126,0 10.54991,4.27338 11.35117,4.54046 0.80126,0.26709 9.21448,1.06835 10.14928,1.33544 0.9348,0.26708 14.15558,4.27338 17.22707,4.94109 3.07149,0.66772 13.08723,1.60252 14.02203,2.13669 0.9348,0.53417 0.80402,0.72839 1.46898,0.66772 4.32503,-0.39463 12.3351,1.49526 18.29541,2.40378 2.27023,0.40063 2.93795,13.75494 2.93795,15.35746 0,1.60252 -0.66772,3.60567 -1.06835,6.14299 -0.40063,2.53732 -1.33543,6.41007 -1.46897,8.94739 -0.13354,2.53732 -0.26709,4.00629 -1.06835,5.07464 -0.80126,1.06834 -1.06834,4.67401 -1.60251,6.27653 -0.53418,1.60251 -2.53732,3.07149 -2.13669,4.00629 0.40062,0.9348 1.46897,2.67086 0.53417,3.87275 -0.9348,1.20189 -2.43383,1.24872 -2.05611,3.32616 0.37771,2.07745 1.32201,19.64129 1.88858,22.09645 0.56658,2.45516 0.18886,3.39946 0,5.28804 -0.18886,1.88859 4.15489,1.88859 -0.56657,4.91032 -4.72147,3.02174 -4.91033,3.77718 -5.09918,4.53261 -0.18886,0.75543 -15.10869,3.2106 -17.94157,6.42119 -2.83288,3.2106 -5.4769,10.57608 -6.23233,12.08695 -0.75543,1.51087 -0.75543,3.2106 -6.23233,5.85461 -5.4769,2.64404 -23.60732,1.32202 -25.49591,0.9443 -1.88858,-0.37772 -10.76493,-3.39945 -13.59781,-4.72147 -2.83288,-1.32201 -6.421193,-2.07744 -7.932061,-1.13315 -1.510869,0.94429 -3.588314,0.37772 -5.099183,-0.18886 -1.510868,-0.56657 -1.322009,-0.75543 -2.077442,-0.94429 -0.755436,-0.18886 -28.89536,-3.21059 -30.595088,-4.34375 -1.699726,-1.13315 -3.021735,-3.96603 -4.91032,-3.21059 -1.888588,0.75543 -5.288042,0.56657 -8.687496,-0.75544 -3.399454,-1.32201 -5.099179,1.69973 -8.87635,-5.09918 -3.777173,-6.7989 -5.854615,-11.52037 -6.421191,-12.65352 -0.566576,-1.13315 0,-16.05298 -0.566576,-18.50814 -0.566576,-2.45516 -5.28804,-38.90486 -5.28804,-38.90486 -0.849863,-5.28804 -0.09443,-3.30502 -0.661004,-4.15489 -0.566576,-0.84986 -1.227581,-11.99252 -0.944293,-13.03124 0.283288,-1.03872 4.343747,-1.13315 5.571327,-0.94429 1.227581,0.18886 7.64851,-0.44212 9.065211,-1.03872 2.92787,-1.23298 1.437786,-0.89118 3.96603,-0.28329 0.849863,0.0944 11.048225,-3.58831 11.614801,-3.96603 0.566576,-0.37772 7.920857,-1.6576 7.920857,-1.6576 z"
       id="path1" /><path
       style="display:inline;fill:none;fill-opacity:1;stroke:#050000;stroke-width:1.71285;stroke-linecap:round;stroke-linejoin:round;stroke-dasharray:none"
       d="m 158.26707,192.60099 -4.31253,0.0241"
       id="path26-7" /><path
       style="display:inline;fill:none;fill-opacity:1;stroke:#050000;stroke-width:1.71285;stroke-linecap:round;stroke-linejoin:round;stroke-dasharray:none"
       d="m 158.32807,185.81698 -4.31242,-0.0385"
       id="path27-1" /><path
       style="display:inline;fill:none;fill-opacity:1;stroke:#050000;stroke-width:1.71285;stroke-linecap:round;stroke-linejoin:round;stroke-dasharray:none"
       d="m 158.27362,179.00168 -4.31242,-0.0385"
       id="path28-1" /><path
       style="display:inline;fill:none;fill-opacity:1;stroke:#050000;stroke-width:1.71285;stroke-linecap:round;stroke-linejoin:round;stroke-dasharray:none"
       d="m 158.24639,172.18638 -4.31242,-0.0385"
       id="path29-5" /><rect
       style="display:inline;fill:none;fill-opacity:1;stroke:#050000;stroke-width:0.417;stroke-linecap:round;stroke-linejoin:round;stroke-dasharray:none"
       id="rect123"
       width="1.1878597"
       height="3.68788"
       x="160.88219"
       y="-202.44942"
       transform="scale(1,-1)" /><path
       style="display:inline;fill:none;fill-opacity:1;stroke:#050000;stroke-width:0.5;stroke-linecap:round;stroke-linejoin:round;stroke-dasharray:none"
       d="m 158.17477,172.25134 h 1.51086 l 1.65252,-1.65251 v -7.83341 l 3.48961,-3.48961 h 5.75984"
       id="path191" /><path
       style="display:inline;fill:none;fill-opacity:1;stroke:#050000;stroke-width:0.5;stroke-linecap:round;stroke-linejoin:round;stroke-dasharray:none"
       d="m 167.11548,160.96259 h -1.66929 l -2.29527,2.29527 v 8.83889 l -2.37456,2.37456 h -7.73299"
       id="path192" /><path
       style="display:inline;fill:none;fill-opacity:1;stroke:#050000;stroke-width:0.4;stroke-linecap:round;stroke-linejoin:round;stroke-dasharray:none"
       d="m 152.9766,176.50367 h 5.99995 2.37759 l 4.77417,-4.77417 v -3.65574 l 0.50913,-0.50913 h 1.04331 l 0.37976,0.37976 v 2.29945"
       id="path193" /><path
       style="display:inline;fill:none;fill-opacity:1;stroke:#050000;stroke-width:0.41;stroke-linecap:round;stroke-linejoin:round;stroke-dasharray:none"
       d="m 161.52261,198.71075 v -4.35464 l -1.59764,-1.72727 h -0.84874"
       id="path955" /><path
       style="display:inline;fill:none;fill-opacity:1;stroke:#050000;stroke-width:0.401;stroke-linecap:round;stroke-linejoin:round;stroke-dasharray:none"
       d="m 161.45618,204.6878 v -2.14827"
       id="path956" /><path
       style="display:inline;fill:none;fill-opacity:1;stroke:#050000;stroke-width:0.4;stroke-linecap:round;stroke-linejoin:round;stroke-dasharray:none"
       d="m 163.39198,203.81432 v -6.44479"
       id="path957" /><path
       style="display:inline;fill:none;fill-opacity:1;stroke:#050000;stroke-width:0.5;stroke-linecap:round;stroke-linejoin:round;stroke-dasharray:none"
       d="m 171.1824,202.95153 v -0.50643 l -0.47215,-0.54297 h -5.02836 l -0.38952,-0.38952 v -5.8192 l -4.78048,-5.33526 h -6.32676"
       id="path958" /><path
       style="display:inline;fill:none;fill-opacity:1;stroke:#050000;stroke-width:0.602;stroke-linecap:round;stroke-linejoin:round;stroke-dasharray:none"
       d="m 159.01174,185.61847 h 0.88152 l 6.21833,6.73459 v 5.24866 l 0.42885,0.4314 5.12238,0.024"
       id="path960" /><path
       style="display:inline;fill:none;fill-opacity:1;stroke:#050000;stroke-width:0.6;stroke-linecap:round;stroke-linejoin:round;stroke-dasharray:none"
       d="m 163.12588,185.30082 5.42519,5.75905 -0.0167,3.02142 0.47575,0.47575 9.42314,0.0417"
       id="path970" /><path
       style="display:inline;fill:none;fill-opacity:1;stroke:#050000;stroke-width:0.5;stroke-linecap:round;stroke-linejoin:round;stroke-dasharray:none"
       d="m 169.53595,187.10366 h -4.67401 l -3.17165,-3.35528 h -8.42991"
       id="path973" /><path
       style="display:inline;fill:none;fill-opacity:1;stroke:#050000;stroke-width:1.60028;stroke-linecap:round;stroke-linejoin:round;stroke-dasharray:none"
       d="m 420.38678,153.80414 h 55.49707 l 14.35844,15.49376 h 20.6361"
       id="path974"
       clip-path="url(#clipPath109)"
       transform="matrix(0.24995549,0,0,-0.24995549,48.065543,220.30628)" /><path
       style="display:inline;fill:none;fill-opacity:1;stroke:#050000;stroke-width:0.5;stroke-linecap:round;stroke-linejoin:round;stroke-dasharray:none"
       d="m 178.28303,169.70967 v 2.53731 l -1.35213,1.35213 h -9.1644 l -5.36676,5.36677 h -3.46378"
       id="path976" /><rect
       style="fill:none;stroke:#000000;stroke-width:0.762;stroke-linecap:square;stroke-dasharray:none;stroke-opacity:1;paint-order:stroke fill markers"
       id="rect1"
       width="17.627697"
       height="28.311152"
       x="123.12679"
       y="206.9919"
       ry="1.0137662" /><path
       style="fill:none;stroke:#000000;stroke-width:0.762;stroke-linecap:square;stroke-dasharray:none;stroke-opacity:1;paint-order:stroke fill markers"
       d="m 134.54474,206.85836 v -21.16659 l -6.42765,-11.13302 -17.44598,-0.0944 -6.40243,11.08934 v 15.10855"
       id="path2" /><path
       style="fill:none;stroke:#000000;stroke-width:0.762;stroke-linecap:square;stroke-dasharray:none;stroke-opacity:1;paint-order:stroke fill markers"
       d="m 130.26519,206.98897 v -20.49115 l -4.69266,-7.66531 h -12.69575 l -3.89199,7.20372 v 14.87946"
       id="path3" /><ellipse
       style="fill:none;stroke:#000000;stroke-width:0.762;stroke-linecap:square;stroke-dasharray:none;stroke-opacity:1;paint-order:stroke fill markers"
       id="path4"
       ry="1.4636538"
       rx="4.5326056"
       cy="202.31473"
       cx="106.51623" /><path
       style="baseline-shift:baseline;display:inline;overflow:visible;opacity:1;vector-effect:none;stroke-linecap:square;paint-order:stroke fill markers;enable-background:accumulate;stop-color:#000000;stop-opacity:1"
       d="m 109.91018,203.02667 -0.77737,0.24481 0.23828,0.29688 c 0.53022,0.65813 1.02903,1.30046 1.53711,1.73047 1.09412,0.92598 1.64258,2.46945 1.64258,4.08594 0,3.26219 -2.63624,5.89843 -5.89844,5.89843 -3.26219,0 -5.89843,-2.63624 -5.89843,-5.89843 0,-1.67677 0.6087,-3.26325 1.76757,-4.2129 0.48947,-0.40108 0.90532,-0.98657 1.32618,-1.58984 l 0.21679,-0.3125 -0.77845,-0.17587 -0.0633,0.0528 c -0.41553,0.59564 -0.81986,1.13749 -1.1836,1.43555 -1.37688,1.12829 -2.046872,2.94216 -2.046873,4.80274 0,3.674 2.986153,6.66015 6.660153,6.66015 3.67401,0 6.66016,-2.98615 6.66016,-6.66015 0,-1.78738 -0.59821,-3.55598 -1.91211,-4.66797 -0.40412,-0.34202 -0.90232,-0.9651 -1.43555,-1.62696 z"
       id="path5" /><path
       style="fill:none;stroke:#000000;stroke-width:0.762;stroke-linecap:square;stroke-dasharray:none;stroke-opacity:1;paint-order:stroke fill markers"
       d="M 103.96664,196.69618 89.330095,191.50257"
       id="path6" /><path
       style="fill:none;stroke:#000000;stroke-width:0.762;stroke-linecap:square;stroke-dasharray:none;stroke-opacity:1;paint-order:stroke fill markers"
       d="M 104.06107,199.71792 89.424525,194.52431"
       id="path7" /><path
       style="fill:none;stroke:#000000;stroke-width:0.762;stroke-linecap:square;stroke-dasharray:none;stroke-opacity:1;paint-order:stroke fill markers"
       d="M 101.77116,201.58289 89.235666,197.45161"
       id="path8" /><path
       style="fill:none;stroke:#000000;stroke-width:0.762;stroke-linecap:square;stroke-dasharray:none;stroke-opacity:1;paint-order:stroke fill markers"
       d="M 102.93966,204.15359 89.703067,199.72184"
       id="path9" /><path
       id="rect9"
       style="fill:none;stroke:#000000;stroke-width:0.762;stroke-linecap:square;paint-order:stroke fill markers"
       d="m 86.254808,189.9456 h 1.787123 c 0.561627,0 0.982809,0.453 1.013766,1.01377 l 2.360732,42.76359 c 0.02625,0.47542 -0.872122,2.09971 -0.872122,2.09971 l -5.859387,-0.0118 c 0,0 -1.306456,-1.54765 -1.28525,-2.04069 l 1.841372,-42.81081 c 0.02413,-0.5611 0.452139,-1.01377 1.013766,-1.01377 z" /><path
       id="path10"
       style="fill:none;stroke:#000000;stroke-width:0.762;stroke-linecap:square;paint-order:stroke fill markers"
       d="m 90.947189,175.34218 c -10e-7,1.48463 -1.355771,2.82602 -2.018009,3.78459 -0.637261,0.92242 -0.56243,1.49036 -1.520885,1.49036 -1.026552,0 -1.38444,-0.98201 -2.030863,-2.02276 -0.584318,-0.94076 -1.50803,-1.86906 -1.508031,-3.25219 -2e-6,-2.91328 1.584415,-5.27496 3.538894,-5.27496 1.954479,0 3.538896,2.36168 3.538894,5.27496 z" /><path
       style="fill:none;stroke:#000000;stroke-width:0.762;stroke-linecap:square;stroke-dasharray:none;stroke-opacity:1;paint-order:stroke fill markers"
       d="m 88.605888,189.69806 c 0.300475,-1.10173 0.598573,-2.26786 0.598573,-2.26786 l 1.692897,-0.0196 1.047111,-6.45966 1.335432,2.337 3.872751,-3.67243 -0.667716,-2.20347 -2.53732,-1.8696 -3.004722,1.00157"
       id="path11" /><path
       style="fill:none;stroke:#000000;stroke-width:0.762;stroke-linecap:square;stroke-dasharray:none;stroke-opacity:1;paint-order:stroke fill markers"
       d="m 83.531249,176.27698 -3.739208,0.26708 -2.270234,1.93638 -0.200316,2.27023 1.869604,2.33701 1.60252,-1.53575 0.600943,-2.13669 2.203463,7.87905 h 2.136691 l 0.333856,2.47055"
       id="path12" /><path
       style="fill:none;stroke:#000000;stroke-width:0.762;stroke-linecap:square;stroke-dasharray:none;stroke-opacity:1;paint-order:stroke fill markers"
       d="m 89.360341,235.97907 0.0037,0.58091 m 1.525231,13.14565 -0.02088,1.08942 -4.463629,4.66828 -15.123764,-0.0553 -15.006015,-16.65574 -9.935543,-0.17741 -8.61272,-10.42457 0.105359,-10.80681 -9.367827,-51.87689"
       id="path14" /><path
       style="fill:none;stroke:#000000;stroke-width:0.762;stroke-linecap:square;stroke-dasharray:none;stroke-opacity:1;paint-order:stroke fill markers"
       d="m 85.624776,235.91615 0.0029,0.74737 m -1.524341,13.30244 -0.0045,1.0168 -1.825744,1.97074 -10.195106,-0.19224 -14.971562,-16.94075 -8.81385,-0.05 -5.838454,-7.26257 0.177472,-10.87693 -9.779972,-48.56531"
       id="path15" /><rect
       style="fill:none;stroke:#000000;stroke-width:1.498;stroke-linecap:square;stroke-dasharray:none;stroke-opacity:1;paint-order:stroke fill markers"
       id="rect15"
       width="84.795921"
       height="81.157814"
       x="68.125229"
       y="163.20796"
       ry="10.017572" /><rect
       style="fill:none;stroke:#000000;stroke-width:1.498;stroke-linecap:square;stroke-dasharray:none;stroke-opacity:1;paint-order:stroke fill markers"
       id="rect16"
       width="76.92086"
       height="72.380394"
       x="71.846214"
       y="167.73021"
       ry="7.8808875" /><circle
       style="fill:none;stroke:#000000;stroke-width:0.470241;stroke-linecap:square;stroke-dasharray:none;stroke-opacity:1;paint-order:stroke fill markers"
       id="path16"
       cx="28.242884"
       cy="164.12119"
       r="1.1551372" /><circle
       style="fill:none;stroke:#000000;stroke-width:0.470241;stroke-linecap:square;stroke-dasharray:none;stroke-opacity:1;paint-order:stroke fill markers"
       id="circle17"
       cx="32.492203"
       cy="167.42621"
       r="1.1551372" /><circle
       style="fill:none;stroke:#000000;stroke-width:0.470241;stroke-linecap:square;stroke-dasharray:none;stroke-opacity:1;paint-order:stroke fill markers"
       id="circle18"
       cx="89.409393"
       cy="237.91074"
       r="1.1551372" /><circle
       style="fill:none;stroke:#000000;stroke-width:0.470241;stroke-linecap:square;stroke-dasharray:none;stroke-opacity:1;paint-order:stroke fill markers"
       id="circle19"
       cx="85.580421"
       cy="237.96486"
       r="1.1551372" /><circle
       style="fill:none;stroke:#000000;stroke-width:0.470241;stroke-linecap:square;stroke-dasharray:none;stroke-opacity:1;paint-order:stroke fill markers"
       id="circle20"
       cx="177.23552"
       cy="220.91801"
       r="1.1551372" /><circle
       style="fill:none;stroke:#000000;stroke-width:0.470241;stroke-linecap:square;stroke-dasharray:none;stroke-opacity:1;paint-order:stroke fill markers"
       id="circle21"
       cx="171.1562"
       cy="204.15215"
       r="1.1551372" /><circle
       style="fill:none;stroke:#000000;stroke-width:0.898;stroke-linecap:square;stroke-dasharray:none;stroke-opacity:1;paint-order:stroke fill markers"
       id="path21"
       cx="132.15378"
       cy="214.68497"
       r="3.9188151" /><circle
       style="fill:none;stroke:#000000;stroke-width:0.798;stroke-linecap:square;stroke-dasharray:none;stroke-opacity:1;paint-order:stroke fill markers"
       id="circle22"
       cx="132.15378"
       cy="226.20534"
       r="3.9188151" /><circle
       style="fill:none;stroke:#000000;stroke-width:0.470241;stroke-linecap:square;stroke-dasharray:none;stroke-opacity:1;paint-order:stroke fill markers"
       id="circle23"
       cx="72.272194"
       cy="247.42569"
       r="1.1551372" /><path
       style="fill:none;stroke:#000000;stroke-width:0.762;stroke-linecap:square;stroke-dasharray:none;stroke-opacity:1;paint-order:stroke fill markers"
       d="m 71.010816,246.64927 -12.086947,-14.8254 -8.529072,0.083 -3.369017,-4.04902 -0.240225,-10.23036 -10.430283,-48.12694"
       id="path23" /><circle
       style="fill:none;stroke:#000000;stroke-width:0.470241;stroke-linecap:square;stroke-dasharray:none;stroke-opacity:1;paint-order:stroke fill markers"
       id="circle24"
       cx="36.033302"
       cy="168.13443"
       r="1.1551372" /><path
       style="fill:none;stroke:#000000;stroke-width:0.762;stroke-linecap:square;stroke-dasharray:none;stroke-opacity:1;paint-order:stroke fill markers"
       d="m 38.338286,165.62896 3.116167,-1e-5 8.685905,10.51156 0.05459,5.5959 3.09351,6.72328 0.54208,8.14082 -4.599348,5.54532 3.082623,14.47493 v 10.67051"
       id="path24" /><path
       style="fill:none;stroke:#000000;stroke-width:0.762;stroke-linecap:square;stroke-dasharray:none;stroke-opacity:1;paint-order:stroke fill markers"
       d="m 35.883125,163.55151 9.537358,0.28328 9.25913,11.84328 -0.02355,6.30799 2.844771,6.3749 0.44562,8.26704 -4.629892,5.58864 2.963281,14.40412 v 10.67051"
       id="path25" /><path
       style="fill:none;stroke:#000000;stroke-width:0.762;stroke-linecap:square;stroke-dasharray:none;stroke-opacity:1;paint-order:stroke fill markers"
       d="m 32.389242,161.85178 16.997271,0.47214 9.554099,13.3954 -0.12916,5.89952 2.894203,6.72361 0.290798,8.13582 -4.605243,5.86915 2.854668,14.27334 v 10.67051"
       id="path26" /><path
       style="fill:none;stroke:#000000;stroke-width:0.762;stroke-linecap:square;stroke-dasharray:none;stroke-opacity:1;paint-order:stroke fill markers"
       d="m 43.343038,160.24648 10.481651,0.37771 9.65177,15.0583 -0.01397,5.58602 2.873089,6.91823 0.205706,8.21393 -4.589588,6.13064 2.732355,14.08945 v 10.67051"
       id="path27" /><circle
       style="fill:none;stroke:#000000;stroke-width:0.470241;stroke-linecap:square;stroke-dasharray:none;stroke-opacity:1;paint-order:stroke fill markers"
       id="circle27"
       cx="64.630844"
       cy="228.80046"
       r="1.1551372" /><circle
       style="fill:none;stroke:#000000;stroke-width:0.470241;stroke-linecap:square;stroke-dasharray:none;stroke-opacity:1;paint-order:stroke fill markers"
       id="circle28"
       cx="60.157146"
       cy="228.717"
       r="1.1551372" /><circle
       style="fill:none;stroke:#000000;stroke-width:0.470241;stroke-linecap:square;stroke-dasharray:none;stroke-opacity:1;paint-order:stroke fill markers"
       id="circle29"
       cx="56.301086"
       cy="228.717"
       r="1.1551372" /><circle
       style="fill:none;stroke:#000000;stroke-width:0.470241;stroke-linecap:square;stroke-dasharray:none;stroke-opacity:1;paint-order:stroke fill markers"
       id="circle30"
       cx="52.294792"
       cy="228.7003"
       r="1.1551372" /><circle
       style="fill:none;stroke:#000000;stroke-width:0.470241;stroke-linecap:square;stroke-dasharray:none;stroke-opacity:1;paint-order:stroke fill markers"
       id="circle31"
       cx="41.935127"
       cy="159.96629"
       r="1.1551372" /><circle
       style="fill:none;stroke:#000000;stroke-width:0.470241;stroke-linecap:square;stroke-dasharray:none;stroke-opacity:1;paint-order:stroke fill markers"
       id="circle32"
       cx="31.087215"
       cy="161.65456"
       r="1.1551372" /><circle
       style="fill:none;stroke:#000000;stroke-width:0.413779;stroke-linecap:square;stroke-dasharray:none;stroke-opacity:1;paint-order:stroke fill markers"
       id="circle33"
       cx="34.492565"
       cy="163.62431"
       r="1.0164393" /><circle
       style="fill:none;stroke:#000000;stroke-width:0.413779;stroke-linecap:square;stroke-dasharray:none;stroke-opacity:1;paint-order:stroke fill markers"
       id="circle34"
       cx="37.029884"
       cy="165.62746"
       r="1.0164393" /><rect
       style="fill:none;stroke:#000000;stroke-width:0.762;stroke-linecap:square;stroke-dasharray:none;stroke-opacity:1;paint-order:stroke fill markers"
       id="rect34"
       width="6.6100492"
       height="3.4938831"
       x="38.976379"
       y="171.87079"
       ry="1.7469416"
       rx="0.37771711" /><rect
       style="fill:none;stroke:#000000;stroke-width:0.762;stroke-linecap:square;stroke-dasharray:none;stroke-opacity:1;paint-order:stroke fill markers"
       id="rect35"
       width="6.6100492"
       height="3.4938831"
       x="41.360023"
       y="178.84906"
       ry="1.7469416"
       rx="0.37771711" /><rect
       style="fill:none;stroke:#000000;stroke-width:0.762;stroke-linecap:square;stroke-dasharray:none;stroke-opacity:1;paint-order:stroke fill markers"
       id="rect36"
       width="6.6100492"
       height="3.4938831"
       x="43.05975"
       y="185.08139"
       ry="1.7469416"
       rx="0.37771711" /><rect
       style="fill:none;stroke:#000000;stroke-width:0.762;stroke-linecap:square;stroke-dasharray:none;stroke-opacity:1;paint-order:stroke fill markers"
       id="rect37"
       width="6.6100492"
       height="3.4938831"
       x="44.948334"
       y="191.97473"
       ry="1.7469416"
       rx="0.37771711" /><path
       style="fill:none;stroke:#000000;stroke-width:0.762;stroke-linecap:square;stroke-dasharray:none;stroke-opacity:1;paint-order:stroke fill markers"
       d="m 51.547662,199.17963 -3.421402,-1.97535 v -1.69709"
       id="path37" /><path
       style="baseline-shift:baseline;display:inline;overflow:visible;opacity:1;vector-effect:none;stroke-linecap:square;paint-order:stroke fill markers;enable-background:accumulate;stop-color:#000000;stop-opacity:1"
       d="m 46.741932,188.39598 -0.775135,0.0669 0.269531,0.26953 1.390625,1.39063 v 1.77929 0.38086 h 0.763672 v -0.38086 -2.0957 l -1.355553,-1.25917 z"
       id="path38" /><path
       style="baseline-shift:baseline;display:inline;overflow:visible;opacity:1;vector-effect:none;stroke-linecap:square;paint-order:stroke fill markers;enable-background:accumulate;stop-color:#000000;stop-opacity:1"
       d="m 44.996009,182.16066 -0.798743,-0.0747 0.269531,0.26953 1.224609,1.22461 v 1.31054 0.38086 h 0.761719 v -0.38086 -1.62695 l -1.116764,-0.97511 z"
       id="path39" /><path
       style="baseline-shift:baseline;display:inline;overflow:visible;opacity:1;vector-effect:none;stroke-linecap:square;paint-order:stroke fill markers;enable-background:accumulate;stop-color:#000000;stop-opacity:1"
       d="m 42.391187,175.15424 -0.64054,0.30604 0.330078,0.18945 1.940759,1.7155 v 1.31641 0.38086 h 0.761719 v -0.38086 -1.75586 l -2.13276,-1.6057 z"
       id="path40" /><path
       style="display:inline;fill:none;fill-opacity:1;stroke:#050000;stroke-width:1.71285;stroke-linecap:round;stroke-linejoin:round;stroke-dasharray:none"
       d="m 158.26708,215.83249 -4.31253,-0.0241"
       id="path41" /><path
       style="display:inline;fill:none;fill-opacity:1;stroke:#050000;stroke-width:1.71285;stroke-linecap:round;stroke-linejoin:round;stroke-dasharray:none"
       d="m 158.32808,222.6165 -4.31242,0.0385"
       id="path42" /><path
       style="display:inline;fill:none;fill-opacity:1;stroke:#050000;stroke-width:1.71285;stroke-linecap:round;stroke-linejoin:round;stroke-dasharray:none"
       d="m 158.27363,229.4318 -4.31242,0.0385"
       id="path43" /><path
       style="display:inline;fill:none;fill-opacity:1;stroke:#050000;stroke-width:1.71285;stroke-linecap:round;stroke-linejoin:round;stroke-dasharray:none"
       d="m 158.2464,236.2471 -4.31242,0.0385"
       id="path44" /><rect
       style="display:inline;fill:none;fill-opacity:1;stroke:#050000;stroke-width:0.417;stroke-linecap:round;stroke-linejoin:round;stroke-dasharray:none"
       id="rect45"
       width="1.1878597"
       height="3.68788"
       x="160.88219"
       y="205.98404" /><path
       style="display:inline;fill:none;fill-opacity:1;stroke:#050000;stroke-width:0.4;stroke-linecap:round;stroke-linejoin:round;stroke-dasharray:none"
       d="m 158.17478,236.18214 h 1.51086 l 1.65252,1.65251 v 5.8504"
       id="path46" /><path
       style="display:inline;fill:none;fill-opacity:1;stroke:#050000;stroke-width:0.5;stroke-linecap:round;stroke-linejoin:round;stroke-dasharray:none"
       d="m 162.88384,241.02073 v -4.684 l -2.37456,-2.37456 h -6.19724"
       id="path47" /><path
       style="display:inline;fill:none;fill-opacity:1;stroke:#050000;stroke-width:0.5;stroke-linecap:round;stroke-linejoin:round;stroke-dasharray:none"
       d="m 154.24527,231.92981 h 4.52377"
       id="path48" /><path
       style="display:inline;fill:none;fill-opacity:1;stroke:#050000;stroke-width:0.5;stroke-linecap:round;stroke-linejoin:round;stroke-dasharray:none"
       d="m 159.90416,231.86304 h 2.43716 l 4.77417,4.77417 v 3.65574 l 0.50913,0.50913 h 1.04331 l 0.37976,-0.37976 v -2.29945"
       id="path49" /><path
       style="display:inline;fill:none;fill-opacity:1;stroke:#050000;stroke-width:0.41;stroke-linecap:round;stroke-linejoin:round;stroke-dasharray:none"
       d="m 161.52262,209.72273 v 4.35464 l -1.59764,1.72727 h -0.84874"
       id="path50" /><path
       style="display:inline;fill:none;fill-opacity:1;stroke:#050000;stroke-width:0.4;stroke-linecap:round;stroke-linejoin:round;stroke-dasharray:none"
       d="m 161.45619,203.74568 v 2.14827"
       id="path51" /><path
       style="display:inline;fill:none;fill-opacity:1;stroke:#050000;stroke-width:0.4;stroke-linecap:round;stroke-linejoin:round;stroke-dasharray:none"
       d="m 163.39199,204.61916 v 6.44479"
       id="path52" /><path
       style="display:inline;fill:none;fill-opacity:1;stroke:#050000;stroke-width:0.4;stroke-linecap:round;stroke-linejoin:round;stroke-dasharray:none"
       d="m 171.18241,205.34841 v 0.63997 l -0.47215,0.54297 h -5.02836 l -0.38952,0.38952 v 5.8192 l -4.78048,5.33526 h -6.32676"
       id="path53" /><path
       style="display:inline;fill:none;fill-opacity:1;stroke:#050000;stroke-width:0.502;stroke-linecap:round;stroke-linejoin:round;stroke-dasharray:none"
       d="m 159.94655,220.41123 h 0.88152 l 6.21833,-6.73459 v -5.24866 l 0.42885,-0.4314 5.12238,-0.024"
       id="path54" /><path
       style="display:inline;fill:none;fill-opacity:1;stroke:#050000;stroke-width:0.4;stroke-linecap:round;stroke-linejoin:round;stroke-dasharray:none"
       d="m 176.04619,220.99596 h -4.50708 l -3.17165,3.35528 h -8.42991"
       id="path56" /><path
       style="baseline-shift:baseline;display:inline;overflow:visible;opacity:1;vector-effect:none;fill:#050000;stroke-linecap:round;stroke-linejoin:round;enable-background:accumulate;stop-color:#000000;stop-opacity:1"
       d="m 420.38672,151.80469 a 2.0003562,2.0003562 0 0 0 -2,2 2.0003562,2.0003562 0 0 0 2,2 h 54.62305 l 13.76562,14.85351 a 2.0005562,2.0005562 0 0 0 1.4668,0.64063 h 20.63672 a 2.0003562,2.0003562 0 0 0 2,-2 2.0003562,2.0003562 0 0 0 -2,-2.00196 h -19.76368 l -13.76367,-14.85156 a 2.0005562,2.0005562 0 0 0 -1.46679,-0.64062 z"
       id="path57"
       transform="matrix(0.24995549,0,0,0.24995549,49.801604,186.85854)" /><path
       style="display:inline;fill:none;fill-opacity:1;stroke:#050000;stroke-width:0.7;stroke-linecap:round;stroke-linejoin:round;stroke-dasharray:none"
       d="m 178.28304,238.72381 v -2.53731 l -1.35213,-1.35213 h -9.1644 l -5.36676,-5.36677 h -3.46378"
       id="path58" /><path
       style="display:inline;fill:none;fill-opacity:1;stroke:#050000;stroke-width:1.71285;stroke-linecap:round;stroke-linejoin:round;stroke-dasharray:none"
       d="m 158.26707,199.49433 -4.31253,0.0241"
       id="path60" /><path
       style="display:inline;fill:none;fill-opacity:1;stroke:#050000;stroke-width:1.71285;stroke-linecap:round;stroke-linejoin:round;stroke-dasharray:none"
       d="m 158.26707,208.18182 -4.31253,0.0241"
       id="path61" /><path
       style="display:inline;fill:none;fill-opacity:1;stroke:#050000;stroke-width:1.71285;stroke-linecap:round;stroke-linejoin:round;stroke-dasharray:none"
       d="m 98.811512,157.88779 0.0241,4.31254"
       id="path62" /><path
       style="display:inline;fill:none;fill-opacity:1;stroke:#050000;stroke-width:1.71285;stroke-linecap:round;stroke-linejoin:round;stroke-dasharray:none"
       d="m 92.027494,157.82679 -0.0385,4.31242"
       id="path63" /><path
       style="display:inline;fill:none;fill-opacity:1;stroke:#050000;stroke-width:1.71285;stroke-linecap:round;stroke-linejoin:round;stroke-dasharray:none"
       d="m 85.212204,157.88124 -0.0385,4.31242"
       id="path64" /><path
       style="display:inline;fill:none;fill-opacity:1;stroke:#050000;stroke-width:1.71285;stroke-linecap:round;stroke-linejoin:round;stroke-dasharray:none"
       d="m 78.396904,157.90847 -0.0385,4.31242"
       id="path65" /><path
       style="display:inline;fill:none;fill-opacity:1;stroke:#050000;stroke-width:1.71285;stroke-linecap:round;stroke-linejoin:round;stroke-dasharray:none"
       d="m 122.043,157.88778 -0.0241,4.31253"
       id="path66" /><path
       style="display:inline;fill:none;fill-opacity:1;stroke:#050000;stroke-width:1.71285;stroke-linecap:round;stroke-linejoin:round;stroke-dasharray:none"
       d="m 128.82701,157.82678 0.0385,4.31242"
       id="path67" /><path
       style="display:inline;fill:none;fill-opacity:1;stroke:#050000;stroke-width:1.71285;stroke-linecap:round;stroke-linejoin:round;stroke-dasharray:none"
       d="m 135.64232,157.88123 0.0385,4.31242"
       id="path68" /><path
       style="display:inline;fill:none;fill-opacity:1;stroke:#050000;stroke-width:1.71285;stroke-linecap:round;stroke-linejoin:round;stroke-dasharray:none"
       d="m 142.45762,157.90846 0.0385,4.31242"
       id="path69" /><path
       style="display:inline;fill:none;fill-opacity:1;stroke:#050000;stroke-width:1.71285;stroke-linecap:round;stroke-linejoin:round;stroke-dasharray:none"
       d="m 105.70485,157.88779 0.0241,4.31254"
       id="path70" /><path
       style="display:inline;fill:none;fill-opacity:1;stroke:#050000;stroke-width:1.71285;stroke-linecap:round;stroke-linejoin:round;stroke-dasharray:none"
       d="m 114.39234,157.88779 0.0241,4.31254"
       id="path71" /><path
       style="display:inline;fill:none;fill-opacity:1;stroke:#050000;stroke-width:1.71285;stroke-linecap:round;stroke-linejoin:round;stroke-dasharray:none"
       d="m 97.743167,245.23983 0.0241,4.31254"
       id="path72" /><path
       style="display:inline;fill:none;fill-opacity:1;stroke:#050000;stroke-width:1.71285;stroke-linecap:round;stroke-linejoin:round;stroke-dasharray:none"
       d="m 90.959149,245.17883 -0.0385,4.31242"
       id="path73" /><path
       style="display:inline;fill:none;fill-opacity:1;stroke:#050000;stroke-width:1.71285;stroke-linecap:round;stroke-linejoin:round;stroke-dasharray:none"
       d="m 84.143859,245.23328 -0.0385,4.31242"
       id="path74" /><path
       style="display:inline;fill:none;fill-opacity:1;stroke:#050000;stroke-width:1.71285;stroke-linecap:round;stroke-linejoin:round;stroke-dasharray:none"
       d="m 77.328559,245.26051 -0.0385,4.31242"
       id="path75" /><path
       style="display:inline;fill:none;fill-opacity:1;stroke:#050000;stroke-width:1.71285;stroke-linecap:round;stroke-linejoin:round;stroke-dasharray:none"
       d="m 120.97465,245.23982 -0.0241,4.31253"
       id="path76" /><path
       style="display:inline;fill:none;fill-opacity:1;stroke:#050000;stroke-width:1.71285;stroke-linecap:round;stroke-linejoin:round;stroke-dasharray:none"
       d="m 127.75866,245.17882 0.0385,4.31242"
       id="path77" /><path
       style="display:inline;fill:none;fill-opacity:1;stroke:#050000;stroke-width:1.71285;stroke-linecap:round;stroke-linejoin:round;stroke-dasharray:none"
       d="m 134.57397,245.23327 0.0385,4.31242"
       id="path78" /><path
       style="display:inline;fill:none;fill-opacity:1;stroke:#050000;stroke-width:1.71285;stroke-linecap:round;stroke-linejoin:round;stroke-dasharray:none"
       d="m 141.38927,245.2605 0.0385,4.31242"
       id="path79" /><path
       style="display:inline;fill:none;fill-opacity:1;stroke:#050000;stroke-width:1.71285;stroke-linecap:round;stroke-linejoin:round;stroke-dasharray:none"
       d="m 104.6365,245.23983 0.0241,4.31254"
       id="path80" /><path
       style="display:inline;fill:none;fill-opacity:1;stroke:#050000;stroke-width:1.71285;stroke-linecap:round;stroke-linejoin:round;stroke-dasharray:none"
       d="m 113.32399,245.23983 0.0241,4.31254"
       id="path81" /></g></svg>
